<svg width="23.499634" height="40.000000" viewBox="0 0 23.4996 40" fill="none" xmlns="http://www.w3.org/2000/svg" xmlns:xlink="http://www.w3.org/1999/xlink">
	<desc>
			Created with Pixso.
	</desc>
	<defs/>
	<path id="Vector" d="M22.8616 18.4392L5.06104 0.639038C4.64941 0.227051 4.09985 0 3.51379 0C2.92773 0 2.37817 0.227051 1.96643 0.639038L0.65564 1.94958C-0.197388 2.80359 -0.197388 4.19153 0.65564 5.04419L15.6031 19.9917L0.639038 34.9558C0.227295 35.3678 0 35.9171 0 36.5028C0 37.0891 0.227295 37.6384 0.639038 38.0508L1.94995 39.361C2.36194 39.7731 2.91113 40 3.49719 40C4.08325 40 4.63281 39.7731 5.04456 39.361L22.8616 21.5446C23.2743 21.1312 23.501 20.5793 23.4996 19.9927C23.501 19.4038 23.2743 18.8522 22.8616 18.4392Z" fill="#FFFFFF" fill-opacity="1.000000" fill-rule="nonzero"/>
</svg>
