<svg width="20.000000" height="20.000000" viewBox="0 0 20 20" fill="none" xmlns="http://www.w3.org/2000/svg" xmlns:xlink="http://www.w3.org/1999/xlink">
	<desc>
			Created with Pixso.
	</desc>
	<defs>
		<clipPath id="clip13_56">
			<rect id="002-instagram" width="20.000000" height="20.000000" fill="white" fill-opacity="0"/>
		</clipPath>
	</defs>
	<rect id="002-instagram" width="20.000000" height="20.000000" fill="#FFFFFF" fill-opacity="0"/>
	<g clip-path="url(#clip13_56)">
		<path id="Vector" d="M17.0703 0L2.92969 0C1.31445 0 0 1.31439 0 2.92969L0 17.0703C0 18.6856 1.31445 20 2.92969 20L17.0703 20C18.6855 20 20 18.6856 20 17.0703L20 2.92969C20 1.31439 18.6855 0 17.0703 0ZM10.0391 15.2344C7.13123 15.2344 4.76562 12.8688 4.76562 9.96094C4.76562 7.05307 7.13123 4.6875 10.0391 4.6875C12.9469 4.6875 15.3125 7.05307 15.3125 9.96094C15.3125 12.8688 12.9469 15.2344 10.0391 15.2344ZM15.8984 5.85938C14.9292 5.85938 14.1406 5.0708 14.1406 4.10156C14.1406 3.13232 14.9292 2.34375 15.8984 2.34375C16.8677 2.34375 17.6562 3.13232 17.6562 4.10156C17.6562 5.0708 16.8677 5.85938 15.8984 5.85938Z" fill="#E5E5E5" fill-opacity="1.000000" fill-rule="nonzero"/>
		<path id="Vector" d="M15.8984 3.51562C15.5751 3.51562 15.3125 3.77823 15.3125 4.10156C15.3125 4.4249 15.5751 4.6875 15.8984 4.6875C16.2218 4.6875 16.4844 4.4249 16.4844 4.10156C16.4844 3.77823 16.2218 3.51562 15.8984 3.51562Z" fill="#E5E5E5" fill-opacity="1.000000" fill-rule="nonzero"/>
		<path id="Vector" d="M10.0391 5.85938C7.77771 5.85938 5.9375 7.69958 5.9375 9.96094C5.9375 12.2223 7.77771 14.0625 10.0391 14.0625C12.3004 14.0625 14.1406 12.2223 14.1406 9.96094C14.1406 7.69958 12.3004 5.85938 10.0391 5.85938Z" fill="#E5E5E5" fill-opacity="1.000000" fill-rule="nonzero"/>
	</g>
</svg>
