<svg width="133.000000" height="66.000000" viewBox="0 0 133 66" fill="none" xmlns="http://www.w3.org/2000/svg" xmlns:xlink="http://www.w3.org/1999/xlink">
	<desc>
			Created with Pixso.
	</desc>
	<defs>
		<clipPath id="clip13_8">
			<rect id="Логотип-01 1" width="133.000000" height="66.000000" fill="white" fill-opacity="0"/>
		</clipPath>
	</defs>
	<rect id="Логотип-01 1" width="133.000000" height="66.000000" fill="#FFFFFF" fill-opacity="0"/>
	<g clip-path="url(#clip13_8)">
		<path id="Vector" d="M28.109 51.0791C28.2502 51.1691 28.3216 51.3318 28.3216 51.5675C28.3216 51.7881 28.2582 51.9431 28.132 52.0338C28.011 52.1188 27.8085 52.1616 27.5252 52.1616L25.8489 52.1616L25.8489 55.0479C25.8489 55.3885 25.7733 55.6463 25.6212 55.822C25.4691 56.0027 25.2493 56.0927 24.9611 56.0927C24.6879 56.0927 24.4753 56.0098 24.324 55.8448C24.1719 55.6842 24.0963 55.4093 24.0963 55.0179L24.0963 51.8467C24.0963 51.686 24.1193 51.549 24.1647 51.4333C24.2051 51.3133 24.2656 51.2176 24.347 51.1476C24.4277 51.0776 24.5186 51.0248 24.6202 50.9898C24.7211 50.9598 24.835 50.9448 24.9618 50.9448L27.4496 50.9448C27.7421 50.9441 27.962 50.9891 28.109 51.0791Z" fill="#FFFFFF" fill-opacity="1.000000" fill-rule="nonzero"/>
		<path id="Vector" d="M31.6885 54.9644C31.6885 55.37 31.6129 55.6599 31.4608 55.8327C31.3087 56.0055 31.0767 56.0919 30.7632 56.0919C30.4497 56.0919 30.2198 56.0127 30.0728 55.8549C29.9258 55.697 29.853 55.4178 29.853 55.0172L29.853 51.846C29.853 51.5404 29.9366 51.3133 30.103 51.1655C30.2703 51.0177 30.4901 50.9441 30.7632 50.9441L32.113 50.9441C32.4417 50.9441 32.7451 50.9884 33.0232 51.0755C33.3014 51.1633 33.5428 51.2862 33.7475 51.444C33.9521 51.6018 34.1115 51.7996 34.2253 52.0374C34.3392 52.2752 34.3961 52.5401 34.3961 52.83C34.3961 53.1856 34.2924 53.4948 34.0848 53.7583C33.8772 54.0211 33.6041 54.2182 33.2654 54.3481C32.9266 54.4788 32.5447 54.5438 32.1202 54.5438L31.6878 54.5438L31.6878 54.9644L31.6885 54.9644ZM32.6448 52.725C32.6448 52.5401 32.6268 52.393 32.5916 52.2852C32.5562 52.1773 32.4943 52.0959 32.4056 52.041C32.317 51.986 32.2211 51.9496 32.1173 51.9317C32.0135 51.9138 31.8708 51.9053 31.6885 51.9053L31.6885 53.5584C31.8298 53.5584 31.9552 53.5462 32.064 53.5205C32.1728 53.4955 32.2723 53.4527 32.3638 53.3927C32.4546 53.3327 32.5245 53.2463 32.5721 53.1335C32.6204 53.0221 32.6448 52.8857 32.6448 52.725Z" fill="#FFFFFF" fill-opacity="1.000000" fill-rule="nonzero"/>
		<path id="Vector" d="M40.3885 51.1469C40.5348 51.2869 40.6083 51.5175 40.6083 51.8382L40.6083 52.1616C40.6083 52.3016 40.5903 52.6429 40.555 53.1835C40.5146 53.7498 40.4843 54.0982 40.4642 54.2282C40.4137 54.5338 40.3381 54.7994 40.2365 55.0251C40.1348 55.2457 39.9936 55.4414 39.812 55.6114C39.6296 55.787 39.3976 55.917 39.1143 56.002C38.8311 56.0869 38.4946 56.1298 38.1054 56.1298C37.7919 56.1298 37.5007 56.0898 37.2334 56.0098C36.9653 55.9348 36.7527 55.842 36.5963 55.732C36.4392 55.6171 36.3181 55.5042 36.2324 55.3936C36.1415 55.2836 36.0961 55.1879 36.0961 55.1079C36.0961 55.028 36.1264 54.953 36.187 54.8823C36.2526 54.8173 36.3391 54.7845 36.4449 54.7845C36.5206 54.7845 36.6093 54.8044 36.7102 54.8444C36.8161 54.8844 36.9149 54.9294 37.0063 54.9794C37.1022 55.0294 37.2161 55.0744 37.348 55.1143C37.4741 55.1543 37.601 55.1743 37.7271 55.1743C38.0456 55.1743 38.2704 55.1065 38.4023 54.9715C38.5335 54.8416 38.5998 54.6531 38.5998 54.4081L38.607 54.3931L38.607 54.2953L38.607 54.1975C38.496 54.2075 38.3843 54.2125 38.2733 54.2125C37.4691 54.2125 36.8774 54.0425 36.4983 53.7012C36.1243 53.3606 35.9369 52.8471 35.9369 52.1602L35.9369 51.8367C35.9369 51.5711 36.0176 51.3554 36.1797 51.1905C36.3361 51.0205 36.5365 50.9348 36.7786 50.9348C37.077 50.9348 37.3019 50.9898 37.4539 51.1005C37.6103 51.2105 37.6888 51.434 37.6888 51.7696L37.6888 52.303C37.6939 52.4637 37.7191 52.5915 37.7645 52.6865C37.8149 52.7815 37.8806 52.8472 37.962 52.8821C38.0427 52.9221 38.1465 52.9421 38.2726 52.9421C38.3987 52.9421 38.5025 52.9271 38.5839 52.8971C38.6647 52.8672 38.723 52.8193 38.7583 52.7543C38.7987 52.6893 38.8239 52.6244 38.834 52.5587C38.8491 52.4937 38.8571 52.4087 38.8571 52.303L38.8571 51.7617C38.8571 51.5918 38.8773 51.449 38.9176 51.3333C38.963 51.2183 39.0286 51.1327 39.1151 51.0777C39.2059 51.0227 39.2974 50.9848 39.3882 50.9648C39.4841 50.9448 39.5979 50.9348 39.7298 50.9348C40.0217 50.9363 40.2422 51.0063 40.3885 51.1469Z" fill="#FFFFFF" fill-opacity="1.000000" fill-rule="nonzero"/>
		<path id="Vector" d="M44.5454 52.7022C44.5454 52.4565 44.3155 52.3337 43.855 52.3337C43.7592 52.3337 43.6287 52.3423 43.4644 52.3601C43.3 52.378 43.1797 52.3866 43.104 52.3866C42.7401 52.3866 42.5577 52.1709 42.5577 51.7403C42.5577 51.2947 43.0839 51.0712 44.1353 51.0712C44.8178 51.0712 45.3287 51.1812 45.6675 51.4019C46.0062 51.6225 46.1755 51.9103 46.1755 52.2659C46.1755 52.7622 45.9579 53.1578 45.5233 53.4534C45.8167 53.6091 46.0228 53.7704 46.1417 53.9383C46.2606 54.1061 46.3197 54.3481 46.3197 54.6638C46.3197 55.0994 46.1467 55.4543 45.8 55.7271C45.4534 56.0005 44.9893 56.1369 44.4084 56.1369C43.6806 56.1369 43.1581 56.0627 42.8424 55.9148C42.5261 55.767 42.3682 55.5428 42.3682 55.2422C42.3682 54.9915 42.4187 54.8202 42.5203 54.7273C42.6212 54.6345 42.7632 54.5881 42.9448 54.5881C43.0356 54.5881 43.1776 54.5981 43.3693 54.6181C43.5616 54.6381 43.7079 54.6481 43.8088 54.6481C44.3602 54.6481 44.6354 54.5481 44.6354 54.3474C44.6354 54.2125 44.5822 54.1182 44.4762 54.0654C44.3702 54.0125 44.1699 53.9868 43.8773 53.9868C43.584 53.9868 43.3765 53.949 43.2554 53.874C43.1343 53.799 43.0731 53.6584 43.0731 53.4534C43.0731 53.1428 43.2806 52.9871 43.695 52.9871C43.9631 52.9871 44.1613 52.975 44.2903 52.9492C44.4193 52.9243 44.4935 52.8957 44.5144 52.8629C44.5345 52.8315 44.5454 52.7779 44.5454 52.7022Z" fill="#FFFFFF" fill-opacity="1.000000" fill-rule="nonzero"/>
		<path id="Vector" d="M52.8353 51.1169C52.9816 51.2269 53.0551 51.4504 53.0551 51.786L53.0551 54.9722C53.0551 55.3778 52.9816 55.6685 52.8353 55.8441C52.6883 56.0148 52.4663 56.0998 52.168 56.0998C51.8746 56.0998 51.6599 56.0198 51.5229 55.8591C51.3867 55.7042 51.3183 55.4257 51.3183 55.0251L51.3104 54.1761L51.3024 53.4091L49.7703 55.6563C49.7249 55.7213 49.6816 55.7763 49.6413 55.822L49.6262 55.8448C49.4849 56.0155 49.2593 56.1005 48.9509 56.1005C48.6575 56.1005 48.4428 56.0205 48.3058 55.8598C48.1697 55.7049 48.1012 55.4264 48.1012 55.0258L48.0781 51.8546C48.0781 51.5439 48.1588 51.3162 48.321 51.1705C48.4774 51.0255 48.6878 50.9527 48.9509 50.9527C49.2543 50.9527 49.4769 51.0077 49.6182 51.1183C49.7645 51.2283 49.838 51.4518 49.838 51.7874L49.838 53.6591L50.7785 52.2759L51.4005 51.374L51.4235 51.3362C51.4991 51.1962 51.6008 51.0984 51.7269 51.0434C51.848 50.9834 51.995 50.9534 52.1665 50.9534C52.4613 50.9513 52.684 51.0063 52.8353 51.1169Z" fill="#FFFFFF" fill-opacity="1.000000" fill-rule="nonzero"/>
		<path id="Vector" d="M59.9044 54.9644C59.9044 55.37 59.8309 55.6599 59.6846 55.8327C59.5376 56.0055 59.3156 56.0919 59.0173 56.0919C58.7239 56.0919 58.5092 56.0127 58.3723 55.8549C58.2353 55.6971 58.1676 55.4178 58.1676 55.0172L58.1597 54.1682L56.6124 54.1682L56.6124 54.9651C56.6124 55.3757 56.5417 55.6664 56.3998 55.837C56.2578 56.0077 56.033 56.0927 55.7245 56.0927C55.4312 56.0927 55.2164 56.0134 55.0795 55.8556C54.9426 55.6978 54.8748 55.4185 54.8748 55.018L54.8517 51.8467C54.8517 51.5361 54.9318 51.3083 55.091 51.1627C55.2503 51.0177 55.4614 50.9449 55.7245 50.9449C56.0279 50.9449 56.2513 50.9998 56.3954 51.1105C56.5396 51.2205 56.6116 51.444 56.6116 51.7796L56.6116 53.0421L58.1517 53.0421L58.1517 51.8474C58.1517 51.6368 58.1906 51.4633 58.2692 51.3247C58.3477 51.1869 58.4487 51.0891 58.5726 51.032C58.6965 50.9741 58.8443 50.9456 59.0165 50.9456C59.3099 50.9456 59.5311 51.0005 59.6803 51.1112C59.8295 51.2212 59.9037 51.4447 59.9037 51.7803L59.9037 54.9644L59.9044 54.9644Z" fill="#FFFFFF" fill-opacity="1.000000" fill-rule="nonzero"/>
		<path id="Vector" d="M64.7812 52.3566C64.7812 52.2516 64.7372 52.1609 64.6486 52.0859C64.5599 52.011 64.4554 51.9731 64.3336 51.9731C64.0908 51.9731 63.8912 52.1095 63.7347 52.383C63.5776 52.6565 63.4998 52.9657 63.4998 53.3113C63.4998 53.5769 63.5503 53.8162 63.6512 54.0289C63.7521 54.2417 63.899 54.411 64.0908 54.5359C64.2832 54.6609 64.5052 54.7238 64.7581 54.7238C64.9448 54.7238 65.1249 54.6873 65.2964 54.6145C65.468 54.5417 65.6078 54.4617 65.7137 54.3738C65.8196 54.286 65.9299 54.206 66.0438 54.1332C66.1577 54.0604 66.2571 54.024 66.3436 54.024C66.4546 54.024 66.5511 54.0675 66.6319 54.1553C66.7126 54.2432 66.7529 54.3346 66.7529 54.4295C66.7529 54.5345 66.7213 54.6573 66.6578 54.798C66.5944 54.938 66.4949 55.0872 66.358 55.245C66.2218 55.4028 66.0626 55.5485 65.8802 55.6806C65.6979 55.8134 65.4716 55.9234 65.2014 56.0112C64.9311 56.0991 64.6464 56.1426 64.3481 56.1426C63.9539 56.1426 63.5884 56.0841 63.2519 55.9662C62.9153 55.8484 62.6235 55.6806 62.3755 55.4628C62.1277 55.245 61.9331 54.9708 61.7918 54.6402C61.6506 54.3096 61.5792 53.939 61.5792 53.5276C61.5792 52.7158 61.8243 52.0745 62.315 51.6039C62.8051 51.1334 63.4479 50.8977 64.2414 50.8977C64.6457 50.8977 65.0197 50.9655 65.3642 51.1005C65.7079 51.2355 65.9811 51.424 66.1836 51.6639C66.3861 51.9046 66.487 52.1673 66.487 52.453C66.487 52.7836 66.376 53.0828 66.1533 53.3513C65.9307 53.619 65.6424 53.7533 65.2885 53.7533C65.086 53.7533 64.9044 53.6983 64.7422 53.5876C64.5801 53.4777 64.4994 53.3199 64.4994 53.1142C64.4994 53.0192 64.5463 52.8864 64.64 52.7158C64.7343 52.5472 64.7812 52.4272 64.7812 52.3566Z" fill="#FFFFFF" fill-opacity="1.000000" fill-rule="nonzero"/>
		<path id="Vector" d="M72.0023 53.619C72.2603 53.649 72.4952 53.7783 72.7079 54.0061C72.9205 54.2339 73.0264 54.5259 73.0264 54.8816C73.0264 55.2272 73.0012 55.4842 72.9507 55.652C72.9003 55.8199 72.8145 55.9348 72.6927 55.9977C72.5717 56.0605 72.3864 56.0919 72.1392 56.0919C71.9418 56.0919 71.7789 56.0648 71.6499 56.0091C71.5209 55.9541 71.4265 55.8727 71.3652 55.7649C71.3047 55.657 71.2744 55.5178 71.2744 55.3478C71.2744 55.1272 71.2658 54.943 71.2478 54.7951C71.2297 54.6473 71.2074 54.5295 71.1793 54.4417C71.1512 54.3539 71.1101 54.2874 71.0539 54.2425C70.9984 54.1974 70.9437 54.1689 70.8911 54.156C70.8377 54.1439 70.7656 54.1375 70.6749 54.1375L70.2727 54.1375L70.2727 54.9715C70.2727 55.3721 70.1942 55.6592 70.0378 55.832C69.8807 56.0048 69.6508 56.0912 69.3474 56.0912C69.054 56.0912 68.8378 56.0098 68.6987 55.847C68.5597 55.6842 68.4905 55.41 68.4905 55.0244L68.4905 51.8903C68.4905 51.5746 68.5496 51.3376 68.6685 51.1797C68.7874 51.0219 68.9805 50.9427 69.2487 50.9427C69.405 50.9427 69.5355 50.9527 69.6392 50.9727C69.743 50.9927 69.8439 51.0291 69.9426 51.0819C70.0414 51.1348 70.1141 51.2169 70.1624 51.3297C70.2107 51.4425 70.2345 51.5868 70.2345 51.7617C70.2345 51.9174 70.2331 52.0909 70.2309 52.2837C70.228 52.4765 70.2273 52.6129 70.2273 52.6936C70.2273 52.7586 70.2439 52.8136 70.2763 52.8593C70.3094 52.9043 70.3599 52.9407 70.4283 52.9685C70.4968 52.9964 70.5812 53.0099 70.6827 53.0099C70.9004 53.0099 71.0453 52.925 71.1188 52.7543C71.1923 52.5844 71.2291 52.2359 71.2291 51.7096C71.2291 51.449 71.2997 51.2562 71.4417 51.1312C71.5829 51.0063 71.8106 50.9434 72.1241 50.9434C72.4628 50.9434 72.6906 51.0084 72.8066 51.1391C72.9226 51.2697 72.981 51.5025 72.981 51.8381C72.981 52.3894 72.8837 52.8164 72.6891 53.1192C72.4938 53.4227 72.2646 53.5891 72.0023 53.619Z" fill="#FFFFFF" fill-opacity="1.000000" fill-rule="nonzero"/>
		<path id="Vector" d="M78.7068 55.8398C78.3076 56.0376 77.8586 56.1369 77.3606 56.1369C76.8626 56.1369 76.415 56.0384 76.0179 55.8398C75.6208 55.642 75.3038 55.345 75.066 54.9494C74.8281 54.5538 74.7092 54.0875 74.7092 53.5512C74.7092 52.7393 74.9557 52.0945 75.4487 51.6161C75.9416 51.1376 76.5801 50.8984 77.3635 50.8984C78.1476 50.8984 78.7868 51.1376 79.2826 51.6161C79.7784 52.0945 80.0256 52.7393 80.0256 53.5512C80.0256 54.0875 79.9053 54.5531 79.6653 54.9494C79.426 55.3457 79.1061 55.642 78.7068 55.8398ZM77.3642 55.0401C77.5357 55.0401 77.6841 54.9651 77.8081 54.8144C77.9321 54.6638 78.0207 54.4788 78.0733 54.2581C78.1266 54.0375 78.1533 53.8026 78.1533 53.5519C78.1533 53.2963 78.1252 53.0549 78.0697 52.8264C78.0142 52.5986 77.9241 52.4044 77.8002 52.2437C77.6763 52.0831 77.5306 52.0031 77.3642 52.0031C77.202 52.0031 77.0608 52.0831 76.9397 52.2437C76.8187 52.4044 76.7271 52.5993 76.6666 52.83C76.606 53.0606 76.5757 53.3013 76.5757 53.5512C76.5757 53.8018 76.6046 54.0375 76.663 54.2574C76.7214 54.4781 76.8121 54.663 76.9361 54.8137C77.0601 54.9644 77.2028 55.0401 77.3642 55.0401Z" fill="#FFFFFF" fill-opacity="1.000000" fill-rule="nonzero"/>
		<path id="Vector" d="M84.8506 53.0407C85.1187 53.0407 85.3068 53.0835 85.4156 53.1685C85.5244 53.2535 85.5784 53.3991 85.5784 53.6041C85.5784 53.7747 85.5143 53.8961 85.3853 53.9683C85.2563 54.0411 85.0552 54.0775 84.7821 54.0775L83.5533 54.0775L83.5533 54.8744L85.1994 54.8823C85.4826 54.8823 85.6859 54.9237 85.8098 55.0065C85.9338 55.0894 85.9957 55.2357 85.9957 55.4464C85.9957 55.687 85.9236 55.8549 85.7795 55.9498C85.6354 56.0448 85.4163 56.0927 85.1237 56.0927L82.6662 56.0927C82.3679 56.0927 82.1495 56.0134 82.0104 55.8556C81.8713 55.6978 81.8021 55.4185 81.8021 55.018L81.8021 51.8467C81.8021 51.2455 82.0904 50.9449 82.6669 50.9449L85.1245 50.9449C85.4177 50.9449 85.6361 50.9898 85.7803 51.0798C85.9244 51.1698 85.9965 51.3326 85.9965 51.5682C85.9965 51.7889 85.9344 51.9431 85.8105 52.0302C85.6866 52.1181 85.4833 52.1617 85.2001 52.1617L83.5469 52.1617L83.5469 53.0407L84.8506 53.0407Z" fill="#FFFFFF" fill-opacity="1.000000" fill-rule="nonzero"/>
		<path id="Vector" d="M94.9306 53.2735C95.1382 53.5391 95.2419 53.8497 95.2419 54.2053C95.2419 54.496 95.1835 54.7588 95.0675 54.9944C94.9565 55.235 94.7973 55.4328 94.5897 55.5878C94.3872 55.7484 94.1472 55.8706 93.869 55.9563C93.5909 56.0462 93.2875 56.0912 92.9588 56.0912L91.6011 56.0912C91.5557 56.0912 91.5103 56.0891 91.4648 56.0834L91.457 56.0834L91.4418 56.0834C91.2443 56.0584 91.08 55.9855 90.9489 55.8656C90.7817 55.7206 90.6988 55.495 90.6988 55.1893L90.6988 52.0181C90.6988 51.6175 90.7723 51.3369 90.9186 51.1762C91.0548 51.0312 91.2623 50.9534 91.5405 50.9434L91.6011 50.9434L94.0889 50.9434C94.3821 50.9434 94.5998 50.9884 94.7411 51.0784C94.8873 51.1684 94.9609 51.3312 94.9609 51.5668C94.9609 51.7875 94.8975 51.9424 94.7714 52.0331C94.6503 52.1181 94.4478 52.1609 94.1646 52.1609L92.5336 52.1609L92.5336 52.4915L92.9661 52.4915C93.3905 52.4915 93.7725 52.5565 94.1112 52.6872C94.4506 52.8179 94.723 53.0128 94.9306 53.2735ZM93.4366 54.7466C93.4719 54.6416 93.49 54.496 93.49 54.311C93.49 54.1504 93.4669 54.0132 93.4215 53.8976C93.371 53.7876 93.3004 53.7019 93.2089 53.6419C93.1174 53.5819 93.0193 53.5391 92.9135 53.5141C92.8024 53.4891 92.6756 53.4763 92.5344 53.4763L92.5344 55.1294C92.7167 55.1294 92.8608 55.1194 92.9667 55.0994C93.0676 55.0844 93.1613 55.0494 93.2471 54.9944C93.3379 54.9394 93.4013 54.8566 93.4366 54.7466Z" fill="#FFFFFF" fill-opacity="1.000000" fill-rule="nonzero"/>
		<path id="Vector" d="M101.818 51.1169C101.964 51.2269 102.038 51.4504 102.038 51.786L102.038 54.9722C102.038 55.3778 101.964 55.6685 101.818 55.8441C101.671 56.0148 101.449 56.0998 101.151 56.0998C100.857 56.0998 100.643 56.0198 100.506 55.8591C100.37 55.7042 100.301 55.4257 100.301 55.0251L100.293 54.1761L100.285 53.4091L98.7531 55.6563C98.7076 55.7213 98.6644 55.7763 98.6241 55.822L98.6089 55.8448C98.4677 56.0155 98.2421 56.1005 97.9337 56.1005C97.6403 56.1005 97.4256 56.0205 97.2886 55.8598C97.1524 55.7049 97.084 55.4264 97.084 55.0258L97.0609 51.8546C97.0609 51.5439 97.1416 51.3162 97.3038 51.1705C97.4601 51.0255 97.6706 50.9527 97.9337 50.9527C98.2371 50.9527 98.4597 51.0077 98.601 51.1183C98.7473 51.2283 98.8208 51.4518 98.8208 51.7874L98.8208 53.6591L99.7613 52.2759L100.383 51.374L100.406 51.3362C100.482 51.1962 100.584 51.0984 100.71 51.0434C100.831 50.9834 100.978 50.9534 101.149 50.9534C101.443 50.9513 101.666 51.0063 101.818 51.1169Z" fill="#FFFFFF" fill-opacity="1.000000" fill-rule="nonzero"/>
		<path id="Vector" d="M106.99 52.3566C106.99 52.2516 106.946 52.1609 106.858 52.0859C106.769 52.011 106.665 51.9731 106.543 51.9731C106.3 51.9731 106.1 52.1095 105.944 52.383C105.787 52.6565 105.709 52.9657 105.709 53.3113C105.709 53.5769 105.759 53.8162 105.86 54.0289C105.961 54.2417 106.108 54.411 106.3 54.5359C106.492 54.6609 106.714 54.7238 106.967 54.7238C107.154 54.7238 107.334 54.6873 107.506 54.6145C107.677 54.5417 107.817 54.4617 107.923 54.3738C108.029 54.286 108.139 54.206 108.253 54.1332C108.367 54.0604 108.466 54.024 108.553 54.024C108.664 54.024 108.76 54.0675 108.841 54.1553C108.922 54.2432 108.962 54.3346 108.962 54.4295C108.962 54.5345 108.93 54.6573 108.867 54.798C108.804 54.938 108.704 55.0872 108.567 55.245C108.431 55.4028 108.272 55.5485 108.089 55.6806C107.907 55.8134 107.681 55.9234 107.411 56.0112C107.14 56.0991 106.856 56.1426 106.557 56.1426C106.163 56.1426 105.798 56.0841 105.461 55.9662C105.125 55.8484 104.833 55.6806 104.585 55.4628C104.337 55.245 104.142 54.9708 104.001 54.6402C103.86 54.3096 103.788 53.939 103.788 53.5276C103.788 52.7158 104.033 52.0745 104.524 51.6039C105.014 51.1334 105.657 50.8977 106.451 50.8977C106.855 50.8977 107.229 50.9655 107.573 51.1005C107.917 51.2355 108.19 51.424 108.393 51.6639C108.595 51.9046 108.696 52.1673 108.696 52.453C108.696 52.7836 108.585 53.0828 108.363 53.3513C108.14 53.619 107.852 53.7533 107.498 53.7533C107.295 53.7533 107.114 53.6983 106.951 53.5876C106.789 53.4777 106.709 53.3199 106.709 53.1142C106.709 53.0192 106.755 52.8864 106.849 52.7158C106.944 52.5472 106.99 52.4272 106.99 52.3566Z" fill="#FFFFFF" fill-opacity="1.000000" fill-rule="nonzero"/>
		<path id="Vector" d="M113.93 54.9644C113.93 55.25 113.895 55.4764 113.825 55.6449C113.754 55.8127 113.657 55.9291 113.533 55.9941C113.409 56.0591 113.246 56.0919 113.043 56.0919C112.745 56.0919 112.529 56.0127 112.395 55.8549C112.261 55.6971 112.191 55.4178 112.186 55.0172L112.171 52.2437L111.526 52.2437C111.208 52.2437 110.969 52.1938 110.809 52.0931C110.65 51.9931 110.57 51.8153 110.57 51.5597C110.57 51.4047 110.602 51.2819 110.665 51.1912C110.729 51.1012 110.823 51.037 110.95 50.9998C111.077 50.9627 111.246 50.9434 111.458 50.9434L114.704 50.9434C114.988 50.9434 115.192 50.9934 115.318 51.0934C115.445 51.1934 115.508 51.3669 115.508 51.6118C115.508 51.7775 115.471 51.906 115.398 51.9988C115.324 52.0917 115.227 52.1552 115.106 52.1902C114.985 52.2252 114.828 52.243 114.635 52.243L113.93 52.243L113.93 54.9644L113.93 54.9644Z" fill="#FFFFFF" fill-opacity="1.000000" fill-rule="nonzero"/>
		<path id="Vector" d="M118.944 54.9644C118.944 55.37 118.869 55.6599 118.716 55.8327C118.564 56.0055 118.332 56.0919 118.019 56.0919C117.705 56.0919 117.475 56.0127 117.328 55.8549C117.181 55.697 117.109 55.4178 117.109 55.0172L117.109 51.846C117.109 51.5404 117.192 51.3133 117.359 51.1655C117.526 51.0177 117.746 50.9441 118.019 50.9441L119.369 50.9441C119.697 50.9441 120.001 50.9884 120.279 51.0755C120.557 51.1633 120.799 51.2862 121.003 51.444C121.208 51.6018 121.367 51.7996 121.481 52.0374C121.595 52.2752 121.652 52.5401 121.652 52.83C121.652 53.1856 121.548 53.4948 121.34 53.7583C121.133 54.0211 120.86 54.2182 120.521 54.3481C120.182 54.4788 119.8 54.5438 119.376 54.5438L118.943 54.5438L118.943 54.9644L118.944 54.9644ZM119.9 52.725C119.9 52.5401 119.882 52.393 119.846 52.2852C119.811 52.1773 119.749 52.0959 119.661 52.041C119.572 51.986 119.476 51.9496 119.372 51.9317C119.268 51.9138 119.126 51.9053 118.943 51.9053L118.943 53.5584C119.085 53.5584 119.21 53.5462 119.319 53.5205C119.428 53.4955 119.527 53.4527 119.619 53.3927C119.71 53.3327 119.779 53.2463 119.827 53.1335C119.876 53.0221 119.9 52.8857 119.9 52.725Z" fill="#FFFFFF" fill-opacity="1.000000" fill-rule="nonzero"/>
		<path id="Vector" d="M127.204 55.8398C126.805 56.0376 126.356 56.1369 125.858 56.1369C125.36 56.1369 124.912 56.0384 124.515 55.8398C124.118 55.642 123.801 55.345 123.563 54.9494C123.325 54.5538 123.206 54.0875 123.206 53.5512C123.206 52.7393 123.453 52.0945 123.946 51.6161C124.439 51.1376 125.077 50.8984 125.861 50.8984C126.645 50.8984 127.284 51.1376 127.78 51.6161C128.276 52.0945 128.523 52.7393 128.523 53.5512C128.523 54.0875 128.402 54.5531 128.162 54.9494C127.923 55.3457 127.604 55.642 127.204 55.8398ZM125.861 55.0401C126.033 55.0401 126.181 54.9651 126.305 54.8144C126.429 54.6638 126.518 54.4788 126.57 54.2581C126.624 54.0375 126.65 53.8026 126.65 53.5519C126.65 53.2963 126.622 53.0549 126.567 52.8264C126.511 52.5986 126.421 52.4044 126.297 52.2437C126.173 52.0831 126.028 52.0031 125.861 52.0031C125.699 52.0031 125.558 52.0831 125.437 52.2437C125.316 52.4044 125.224 52.5993 125.164 52.83C125.103 53.0606 125.073 53.3013 125.073 53.5512C125.073 53.8018 125.102 54.0375 125.16 54.2574C125.218 54.4781 125.309 54.663 125.433 54.8137C125.557 54.9644 125.7 55.0401 125.861 55.0401Z" fill="#FFFFFF" fill-opacity="1.000000" fill-rule="nonzero"/>
		<path id="Vector" d="M45.7374 47.2059L41.0674 47.2059L41.0674 30.4229L45.7374 30.4229L45.7374 47.2059Z" fill="#FFFFFF" fill-opacity="1.000000" fill-rule="nonzero"/>
		<path id="Vector" d="M51.7363 47.2059L49.5714 47.2059L49.5714 30.4229L52.6061 30.4229L62.8981 41.9496L62.8981 30.4229L65.0507 30.4229L65.0507 47.2059L62.0159 47.2059L51.7355 35.6913L51.7355 47.2059L51.7363 47.2059Z" fill="#FFFFFF" fill-opacity="1.000000" fill-rule="nonzero"/>
		<path id="Vector" d="M85.0112 39.1761L85.0112 39.3974C84.9954 40.0501 84.9269 40.7263 84.8051 41.4254C84.6833 42.1245 84.5132 42.8236 84.2935 43.5234C84.0737 44.2225 83.8113 44.9144 83.5057 45.5978C83.2002 46.2819 82.8572 46.936 82.4766 47.5615C82.0961 48.187 81.6868 48.7733 81.2472 49.3217C80.8076 49.8694 80.3456 50.3528 79.8591 50.7727L78.1064 49.7701C78.381 49.3117 78.6297 48.8126 78.8531 48.2727C79.0765 47.7329 79.2783 47.1673 79.4592 46.5768C79.6393 45.9862 79.7943 45.3807 79.924 44.7587C80.053 44.1375 80.1611 43.5198 80.2476 42.9057C80.334 42.2923 80.3982 41.6875 80.4415 41.0934C80.4847 40.4992 80.5063 39.9337 80.5063 39.3974C80.5063 38.9775 80.5042 38.502 80.5005 37.97C80.4962 37.438 80.4652 36.896 80.4061 36.344C80.347 35.7928 80.2512 35.2543 80.1179 34.7295C79.9846 34.2054 79.7864 33.7369 79.524 33.3249C79.261 32.9129 78.9244 32.5829 78.5122 32.3345C78.1007 32.086 77.5891 31.9617 76.9772 31.9617C76.436 31.9617 75.9711 32.0531 75.5834 32.2359C75.1949 32.4187 74.8656 32.6637 74.5953 32.97C74.3251 33.277 74.1089 33.6327 73.9482 34.0361C73.7875 34.4403 73.662 34.8659 73.572 35.3122C73.4819 35.7592 73.4228 36.2098 73.3954 36.6639C73.368 37.1188 73.3544 37.5479 73.3544 37.9521L73.3544 41.204L78.4236 41.204L78.4236 43.1271L73.3544 43.1271L73.3544 47.2059L68.6844 47.2059L68.6844 38.6748C68.6844 37.4551 68.8804 36.3205 69.2725 35.2715C69.6645 34.2225 70.2194 33.3113 70.9365 32.5387C71.6543 31.7654 72.5162 31.1598 73.5244 30.7206C74.5319 30.2815 75.6555 30.0623 76.8943 30.0623C77.7332 30.0623 78.5194 30.1808 79.2523 30.4179C79.9853 30.6549 80.6541 30.9813 81.258 31.3969C81.8619 31.8125 82.4009 32.3059 82.8752 32.8772C83.3494 33.4484 83.7457 34.0718 84.0629 34.748C84.3807 35.4243 84.6213 36.1391 84.7864 36.8924C84.9529 37.6451 85.0271 38.4063 85.0112 39.1761Z" fill="#FFFFFF" fill-opacity="1.000000" fill-rule="nonzero"/>
		<path id="Vector" d="M91.1867 34.6888L89.8693 47.2059L86.9873 47.2059L89.8693 30.4229L94.1393 30.4229L98.103 43.2313L102.114 30.4229L106.384 30.4229L108.784 47.2059L104.032 47.2059L102.632 35.0151L99.3274 47.2059L95.0574 47.2059L91.1867 34.6888Z" fill="#FFFFFF" fill-opacity="1.000000" fill-rule="nonzero"/>
		<path id="Vector" d="M129.32 38.7912C129.32 40.1429 129.086 41.3611 128.615 42.4451C128.144 43.5291 127.494 44.4481 126.663 45.2015C125.832 45.9548 124.847 46.5339 123.71 46.9381C122.573 47.3423 121.342 47.5444 120.017 47.5444C118.691 47.5444 117.46 47.3423 116.323 46.9381C115.186 46.5339 114.202 45.9555 113.37 45.2015C112.54 44.4481 111.889 43.5291 111.418 42.4451C110.948 41.3611 110.713 40.1436 110.713 38.7912C110.713 37.4159 110.946 36.1862 111.412 35.1022C111.879 34.0183 112.526 33.1014 113.353 32.3516C114.181 31.6018 115.163 31.027 116.299 30.6264C117.437 30.2265 118.675 30.0258 120.017 30.0258C121.358 30.0258 122.597 30.2258 123.734 30.6264C124.871 31.027 125.853 31.6018 126.68 32.3516C127.507 33.1014 128.154 34.0183 128.621 35.1022C129.087 36.1862 129.32 37.4159 129.32 38.7912ZM124.568 38.7912C124.568 38.2785 124.545 37.7536 124.498 37.218C124.451 36.6818 124.364 36.1612 124.239 35.6564C124.114 35.1515 123.943 34.6774 123.727 34.2346C123.512 33.7919 123.235 33.4056 122.898 33.075C122.561 32.7451 122.155 32.4844 121.681 32.2938C121.206 32.1031 120.651 32.0081 120.017 32.0081C119.374 32.0081 118.813 32.1031 118.335 32.2938C117.856 32.4844 117.448 32.7422 117.112 33.0685C116.774 33.3949 116.5 33.7798 116.288 34.2225C116.076 34.6652 115.909 35.1372 115.788 35.6385C115.666 36.1398 115.582 36.6604 115.535 37.2002C115.488 37.7401 115.464 38.2706 115.464 38.7912C115.464 39.3039 115.488 39.8287 115.535 40.3643C115.582 40.9006 115.668 41.419 115.793 41.9203C115.919 42.4216 116.09 42.8936 116.305 43.3363C116.521 43.779 116.797 44.166 117.135 44.496C117.472 44.8266 117.878 45.0887 118.352 45.2829C118.826 45.4771 119.381 45.5742 120.016 45.5742C120.635 45.5742 121.176 45.475 121.639 45.2772C122.102 45.0794 122.501 44.8109 122.839 44.4731C123.176 44.1353 123.456 43.7426 123.68 43.2963C123.903 42.8493 124.08 42.3759 124.209 41.8746C124.338 41.3733 124.43 40.8592 124.485 40.33C124.541 39.8016 124.568 39.2882 124.568 38.7912Z" fill="#FFFFFF" fill-opacity="1.000000" fill-rule="nonzero"/>
		<path id="Vector" d="M37.8683 36.4662C37.6485 35.7321 37.3408 35.0558 36.9451 34.4381C36.5488 33.8205 36.0746 33.2628 35.5218 32.7658C34.9691 32.2688 34.3615 31.8468 33.6985 31.5012C33.0355 31.1555 32.3285 30.8892 31.5754 30.7028C30.8223 30.5164 30.0461 30.4229 29.2462 30.4229L27.0856 30.4229C27.1058 30.4357 27.1266 30.4479 27.1476 30.4607C27.8733 30.9227 28.514 31.4847 29.0674 32.1403C29.5114 32.2317 29.9178 32.3702 30.2875 32.5558C31.0125 32.9214 31.6107 33.4142 32.0813 34.0361C32.5519 34.6581 32.8986 35.3786 33.1219 36.1984C33.3453 37.0181 33.4571 37.8822 33.4571 38.7912C33.4571 39.6924 33.3432 40.5514 33.1162 41.3669C32.8885 42.1823 32.5375 42.9036 32.0633 43.5291C31.5891 44.1546 30.9888 44.6516 30.2637 45.0208C29.538 45.39 28.6776 45.5742 27.6816 45.5742L26.4464 45.5742L26.4464 42.2224C26.5112 40.9099 26.4716 39.8159 26.4161 39.019C26.2813 37.0824 26.0132 36.4154 25.9015 36.1312C25.5736 35.2993 25.1059 34.6574 24.4724 34.1682C23.8699 33.7041 23.1342 33.4784 22.2239 33.4784C22.0697 33.4784 21.9213 33.4856 21.7771 33.4998L21.7771 47.2059L29.2462 47.2059C30.0461 47.2059 30.8245 47.1109 31.5812 46.9203C32.3379 46.7296 33.0477 46.4597 33.71 46.1105C34.3723 45.7606 34.9784 45.3357 35.5276 44.8344C36.0767 44.3332 36.5488 43.7719 36.9451 43.1506C37.3408 42.5294 37.6485 41.851 37.8683 41.1169C38.0874 40.3829 38.1977 39.6074 38.1977 38.7919C38.1977 37.9764 38.0874 37.2002 37.8683 36.4662Z" fill="#FFFFFF" fill-opacity="1.000000" fill-rule="nonzero"/>
		<path id="Vector" d="M20.2695 51.4047C19.0378 50.4686 17.2145 49.7281 14.7996 49.1832C13.4122 48.8748 12.1208 48.2949 10.926 47.4416C9.72961 46.5883 8.76178 45.4572 8.0202 44.0475C7.27863 42.638 6.9082 40.997 6.9082 39.1254C6.9082 37.0167 7.22455 35.4058 7.85876 34.2918C8.49219 33.1785 9.43054 32.6216 10.6744 32.6216C11.3677 32.6216 11.9774 32.7993 12.5035 33.155C13.0289 33.5106 13.4296 34.0083 13.7048 34.6474C13.9794 35.2872 14.1171 36.0099 14.1171 36.8153L14.1171 39.019C14.1171 40.7728 14.4464 42.3245 15.1058 43.6748C15.7653 45.0251 16.7115 46.0798 17.946 46.8382C18.8274 47.3802 19.8169 47.7272 20.9124 47.8815L20.9124 45.2022C20.3978 45.0558 19.9322 44.8195 19.5156 44.4924C18.7626 43.9005 18.2004 43.1242 17.83 42.1645C17.4589 41.2048 17.2744 40.1565 17.2744 39.019C17.2744 37.8344 17.4653 36.7568 17.848 35.7849C18.23 34.8138 18.7921 34.0433 19.5337 33.4749C20.2745 32.9065 21.171 32.6216 22.2239 32.6216C23.3237 32.6216 24.2505 32.9122 25.0036 33.492C25.9924 34.2532 26.4211 35.1573 26.7073 35.8199C27.3386 37.2802 27.3408 38.637 27.3444 40.8328C27.3451 41.419 27.3278 41.906 27.3112 42.2431L27.3112 44.7173L27.6816 44.7173C28.1392 44.7173 28.5616 44.6717 28.9485 44.5831C29.1511 44.2811 29.3356 43.9604 29.5027 43.6212C30.1737 42.2588 30.5095 40.7249 30.5095 39.019C30.5095 37.2895 30.1737 35.7435 29.502 34.381C29.2159 33.8012 28.8808 33.2756 28.4974 32.8029L28.4023 32.6901C27.972 32.1795 27.4791 31.7311 26.935 31.3533C26.9285 31.3491 26.922 31.3441 26.9155 31.3391C26.8377 31.2855 26.7592 31.2327 26.6791 31.182C26.6791 31.182 26.6367 31.1562 26.6229 31.1477L26.6143 31.142C25.4194 30.3993 24.0688 30.0266 22.562 30.0266C21.0276 30.0266 19.6965 30.3408 18.5701 30.9684C17.4437 31.5968 16.5803 32.5501 15.9814 33.8298L15.8381 33.8298C15.4554 32.5501 14.7916 31.5968 13.8475 30.9684C12.9028 30.3408 11.7612 30.0266 10.4222 30.0266C9.03491 30.0266 7.8335 30.3879 6.81738 31.1106C5.80048 31.8339 5.02362 32.8822 4.48596 34.2561C3.94763 35.6307 3.67883 37.2538 3.67883 39.1254C3.67883 40.7599 3.92456 42.2588 4.41534 43.6212C4.90613 44.9837 5.62396 46.1391 6.57019 47.0867C7.51569 48.035 8.63489 48.7091 9.92853 49.1125L9.92853 49.2546C8.73291 49.2546 7.53735 49.2546 6.34174 49.2546C5.65417 49.2125 5.0719 49.7531 5.06036 50.4072C5.04883 51.0755 5.63904 51.6432 6.34174 51.6004L12.043 51.6004C13.4044 51.6004 14.605 51.7539 15.6442 52.0624C16.6834 52.3702 17.4963 52.8029 18.0808 53.3599C18.4346 53.6962 18.6905 54.0704 18.8483 54.481C18.9788 54.8209 19.0184 55.1244 19.0314 55.3329C18.9557 56.5361 19.9517 57.3937 20.7941 57.2988C21.5414 57.2145 22.2535 56.3719 22.1519 55.3329C22.1281 53.6498 21.5004 52.3409 20.2695 51.4047Z" fill="#FFFFFF" fill-opacity="1.000000" fill-rule="nonzero"/>
		<path id="Vector" d="M49.7508 25.0923C50.1616 24.9923 50.4679 24.8716 50.9854 24.6674C51.4048 24.5017 51.7463 24.3503 51.9799 24.2425C52.3128 23.9383 52.6465 23.6348 52.9794 23.3306C52.7366 23.3742 52.4937 23.4178 52.2509 23.4613C52.2509 23.4577 52.2501 23.4527 52.2501 23.4527C52.2501 23.4506 52.2501 23.4492 52.2501 23.4492C52.2501 23.4449 52.2501 23.4413 52.2494 23.437L30.8209 23.437C30.1478 23.3985 29.6541 23.9561 29.711 24.461C29.7607 24.9059 30.2393 25.3101 30.8209 25.2622L48.4586 25.2622C49.0107 25.2472 49.451 25.1651 49.7508 25.0923Z" fill="#FFFFFF" fill-opacity="1.000000" fill-rule="nonzero"/>
		<path id="Vector" d="M82.3721 23.4377C82.3815 24.0419 82.4039 24.6567 82.3693 25.2629L103.907 25.2629C104.448 25.2951 104.904 24.8595 104.898 24.3403C104.893 23.8283 104.44 23.4063 103.907 23.4377C96.7287 23.4377 89.55 23.4377 82.3721 23.4377Z" fill="#FFFFFF" fill-opacity="1.000000" fill-rule="nonzero"/>
		<path id="Vector" d="M53.1704 19.8816C53.1329 19.4639 53.1135 19.0412 53.1135 18.6141C53.1135 10.7079 59.6053 4.27469 67.5853 4.27469C75.5646 4.27469 82.0573 10.7071 82.0573 18.6141C82.0573 19.2911 82.0082 19.9559 81.916 20.6078C82.1415 20.7999 82.3678 20.987 82.5956 21.1698C82.9062 21.2669 83.2153 21.3826 83.5231 21.5162C83.6968 20.5686 83.7869 19.5981 83.7869 18.6141C83.7869 14.3261 82.1019 10.2951 79.0419 7.26312C75.9819 4.23114 71.9137 2.56161 67.5861 2.56161C63.2584 2.56161 59.1902 4.23114 56.1302 7.26312C53.0703 10.2951 51.3853 14.3261 51.3853 18.6141C51.3853 19.6131 51.4775 20.5986 51.657 21.5604C52.209 21.0599 52.7128 20.5 53.1704 19.8816Z" fill="#FFFFFF" fill-opacity="1.000000" fill-rule="nonzero"/>
		<path id="Vector" d="M62.3374 20.7328C62.514 19.4446 60.2525 18.1793 62.4607 18.812C62.5991 18.8498 63.2224 19.8938 63.5302 19.2847C63.5921 19.1704 62.8376 18.5685 62.8995 18.1107C62.9846 17.4402 60.9379 17.638 61.0381 16.5255C61.1072 15.8314 60.0306 16.5483 59.738 16.9139C58.7996 18.0879 59.5073 18.3014 57.4606 19.6274C55.46 20.9235 56.1908 19.1704 53.7982 22.3645C52.7056 23.8284 51.8516 24.4153 49.975 24.7581C49.3206 24.8802 48.6591 25.0559 48.0133 25.238C50.8751 24.2247 53.0984 22.5016 54.699 20.0852C57.145 18.0879 58.9921 16.3498 60.2381 14.8631C61.015 14.1847 61.6153 14.1847 62.0225 14.8631C62.3612 15.5108 62.8383 15.74 63.4458 15.5336C64.2227 15.5872 65.0767 16.4333 66.0078 18.0722C68.577 15.6557 70.3391 13.8184 71.3091 12.553C71.9015 11.5997 72.7094 11.844 73.7399 13.2921C76.2709 17.0503 79.0103 20.0844 81.9492 22.3938C83.4878 22.8208 84.9954 23.7662 86.4728 25.2372C81.6335 25.2372 79.2098 25.2372 79.2098 25.2372C77.9487 23.4385 76.9945 22.493 76.356 22.4095C73.3861 22.0967 71.2709 23.1943 70.0242 25.7028C70.3398 23.3321 72.2244 21.4641 74.617 21.152C73.6938 18.0879 69.8397 21.6019 72.2164 19.1854C72.5703 18.827 73.4473 18.9341 73.6398 18.2707C73.7853 17.7751 74.3013 17.3024 73.4553 16.9975C73.1857 16.9061 71.9938 16.1213 72.7476 15.6564C73.5864 15.138 73.0092 14.0633 72.2633 13.5828C71.5095 13.11 70.9091 15.6336 69.5859 16.152C68.7399 16.4876 66.1779 18.8584 65.739 19.6439C65.3773 20.2844 61.9 23.5699 61.2773 23.9583C61.2233 23.9962 59.1002 25.5822 59.0843 25.605C59.3769 23.989 60.3073 23.0208 61.6614 22.2667C62.2985 21.9068 62.2444 21.4262 62.3374 20.7328Z" fill="#FFFFFF" fill-opacity="1.000000" fill-rule="evenodd"/>
	</g>
</svg>
