<svg width="20.000122" height="20.000000" viewBox="0 0 20.0001 20" fill="none" xmlns="http://www.w3.org/2000/svg" xmlns:xlink="http://www.w3.org/1999/xlink">
	<desc>
			Created with Pixso.
	</desc>
	<defs>
		<clipPath id="clip13_60">
			<rect id="003-twitter" width="20.000078" height="20.000000" fill="white" fill-opacity="0"/>
		</clipPath>
	</defs>
	<rect id="003-twitter" width="20.000078" height="20.000000" fill="#FFFFFF" fill-opacity="0"/>
	<g clip-path="url(#clip13_60)">
		<path id="Vector" d="M7.46143 18.2049C6.59656 18.2049 5.7063 18.1349 4.81079 17.9945C3.23352 17.747 1.63684 16.9219 1.18506 16.6749L0 16.027L1.28296 15.6051C2.68542 15.144 3.53845 14.8579 4.5946 14.4099C3.53711 13.8978 2.72217 12.9766 2.32983 11.7858L2.03137 10.8798L2.27612 10.9171C2.04407 10.6832 1.86084 10.4458 1.71875 10.2299C1.2135 9.46252 0.946045 8.52487 1.00293 7.72134L1.05908 6.93048L1.53259 7.11389C1.33289 6.73669 1.18848 6.33386 1.10364 5.91165C0.896973 4.88199 1.06995 3.78809 1.59106 2.83151L2.00342 2.07437L2.55505 2.73691C4.29956 4.83255 6.50928 6.07568 9.13184 6.43961C9.02466 5.70123 9.10498 4.98865 9.37061 4.34991C9.67993 3.6062 10.2301 2.97556 10.9613 2.52603C11.7734 2.02692 12.7582 1.78506 13.7343 1.84503C14.7699 1.90866 15.7101 2.29669 16.4569 2.96793C16.8215 2.87317 17.0903 2.772 17.4535 2.63528C17.672 2.55304 17.9198 2.45966 18.2299 2.35284L19.3724 1.95917L18.6273 4.08716C18.6765 4.08304 18.7271 4.07953 18.78 4.07724L20.0001 4.022L19.2791 5.00757C19.2377 5.06403 19.2272 5.08005 19.2125 5.10217C19.1543 5.18976 19.082 5.29871 18.0922 6.62042C17.8444 6.95139 17.7207 7.38245 17.7437 7.83441C17.8314 9.55194 17.6207 11.1059 17.1169 12.4529C16.6406 13.7274 15.9023 14.8208 14.9231 15.7029C13.7112 16.7942 12.166 17.5414 10.3301 17.9235C9.42944 18.1109 8.4624 18.2049 7.46143 18.2049Z" fill="#E5E5E5" fill-opacity="1.000000" fill-rule="nonzero"/>
	</g>
</svg>
